<?xml version="1.0" standalone="no"?>
<!DOCTYPE svg PUBLIC "-//W3C//DTD SVG 20010904//EN"
 "http://www.w3.org/TR/2001/REC-SVG-20010904/DTD/svg10.dtd">
<svg version="1.0" xmlns="http://www.w3.org/2000/svg"
 width="64.000000pt" height="64.000000pt" viewBox="0 0 64.000000 64.000000"
 preserveAspectRatio="xMidYMid meet">

<g transform="translate(0.000000,64.000000) scale(0.100000,-0.100000)"
fill="#000000" stroke="none">
<path d="M170 600 c-17 -17 -20 -33 -20 -121 0 -90 -2 -100 -17 -97 -11 2 -19
14 -21 31 -3 20 -8 27 -20 25 -21 -4 -29 -38 -9 -38 8 0 17 -7 21 -15 3 -8 15
-15 26 -15 14 0 20 -7 20 -21 0 -20 -4 -21 -45 -15 -41 7 -45 5 -45 -14 0 -19
4 -21 45 -14 41 6 45 5 45 -15 0 -14 -6 -21 -20 -21 -11 0 -23 -7 -26 -15 -4
-8 -13 -15 -21 -15 -20 0 -12 -34 10 -38 12 -3 17 3 17 22 0 19 5 26 20 26 19
0 20 -7 20 -95 0 -134 1 -135 170 -135 169 0 170 1 170 135 0 88 1 95 20 95
15 0 20 -7 20 -26 0 -19 5 -25 17 -22 22 4 30 38 10 38 -8 0 -17 7 -21 15 -3
8 -15 15 -26 15 -14 0 -20 7 -20 21 0 20 4 21 45 15 41 -7 45 -5 45 14 0 19
-4 21 -45 14 -41 -6 -45 -5 -45 15 0 14 6 21 20 21 11 0 23 7 26 15 4 8 13 15
21 15 20 0 12 34 -9 38 -12 2 -17 -5 -20 -25 -2 -17 -10 -29 -20 -31 -16 -3
-18 7 -18 97 0 141 0 141 -170 141 -117 0 -132 -2 -150 -20z m176 -15 c-8 -8
-20 -15 -26 -15 -6 0 -18 7 -26 15 -14 13 -11 15 26 15 37 0 40 -2 26 -15z
m-56 -20 c7 -8 20 -15 30 -15 10 0 23 7 30 15 8 9 30 15 56 15 l44 0 0 -260 0
-260 -130 0 -130 0 0 260 0 260 44 0 c26 0 48 -6 56 -15z m-190 -145 c0 -5 -4
-10 -10 -10 -5 0 -10 5 -10 10 0 6 5 10 10 10 6 0 10 -4 10 -10z m460 0 c0 -5
-4 -10 -10 -10 -5 0 -10 5 -10 10 0 6 5 10 10 10 6 0 10 -4 10 -10z m-470
-100 c0 -5 -4 -10 -10 -10 -5 0 -10 5 -10 10 0 6 5 10 10 10 6 0 10 -4 10 -10z
m480 0 c0 -5 -4 -10 -10 -10 -5 0 -10 5 -10 10 0 6 5 10 10 10 6 0 10 -4 10
-10z m-470 -100 c0 -5 -4 -10 -10 -10 -5 0 -10 5 -10 10 0 6 5 10 10 10 6 0
10 -4 10 -10z m460 0 c0 -5 -4 -10 -10 -10 -5 0 -10 5 -10 10 0 6 5 10 10 10
6 0 10 -4 10 -10z"/>
<path d="M284 426 c-96 -42 -100 -162 -7 -207 l43 -21 43 21 c94 46 89 166 -9
207 -39 16 -32 16 -70 0z m49 -36 c4 -15 0 -20 -13 -20 -13 0 -17 5 -13 20 3
11 9 20 13 20 4 0 10 -9 13 -20z m-47 -17 c-10 -10 -19 5 -10 18 6 11 8 11 12
0 2 -7 1 -15 -2 -18z m84 6 c0 -5 -4 -9 -10 -9 -5 0 -10 7 -10 16 0 8 5 12 10
9 6 -3 10 -10 10 -16z m-120 -16 c0 -14 -19 -38 -25 -32 -8 8 5 39 16 39 5 0
9 -3 9 -7z m164 -9 c9 -22 -3 -32 -14 -14 -12 19 -12 30 -1 30 5 0 12 -7 15
-16z m-134 -9 c0 -8 -4 -15 -10 -15 -5 0 -10 7 -10 15 0 8 5 15 10 15 6 0 10
-7 10 -15z m100 0 c0 -8 -4 -15 -10 -15 -5 0 -10 7 -10 15 0 8 5 15 10 15 6 0
10 -7 10 -15z m-40 -5 c0 -5 -9 -10 -20 -10 -11 0 -20 5 -20 10 0 6 9 10 20
10 11 0 20 -4 20 -10z m-96 -46 c9 -22 -3 -32 -14 -14 -12 19 -12 30 -1 30 5
0 12 -7 15 -16z m36 1 c0 -8 -4 -15 -10 -15 -5 0 -10 7 -10 15 0 8 5 15 10 15
6 0 10 -7 10 -15z m60 0 c0 -8 -9 -15 -20 -15 -11 0 -20 7 -20 15 0 8 9 15 20
15 11 0 20 -7 20 -15z m40 0 c0 -8 -4 -15 -10 -15 -5 0 -10 7 -10 15 0 8 5 15
10 15 6 0 10 -7 10 -15z m40 8 c0 -14 -19 -38 -25 -32 -8 8 5 39 16 39 5 0 9
-3 9 -7z m-87 -53 c-3 -11 -9 -20 -13 -20 -4 0 -10 9 -13 20 -4 15 0 20 13 20
13 0 17 -5 13 -20z m-43 0 c0 -5 -2 -10 -4 -10 -3 0 -8 5 -11 10 -3 6 -1 10 4
10 6 0 11 -4 11 -10z m80 6 c0 -3 -4 -8 -10 -11 -5 -3 -10 -1 -10 4 0 6 5 11
10 11 6 0 10 -2 10 -4z"/>
</g>
</svg>
